<?xml version="1.0" standalone="no"?>
<!DOCTYPE svg PUBLIC "-//W3C//DTD SVG 20010904//EN"
 "http://www.w3.org/TR/2001/REC-SVG-20010904/DTD/svg10.dtd">
<svg version="1.0" xmlns="http://www.w3.org/2000/svg"
 width="800.000000pt" height="500.000000pt" viewBox="0 0 800.000000 500.000000"
 preserveAspectRatio="xMidYMid meet">

<g transform="translate(0.000000,500.000000) scale(0.100000,-0.100000)"
fill="#000000" stroke="none">
<path d="M3990 3160 c0 -22 5 -40 10 -40 6 0 11 -52 12 -132 2 -113 3 -120 6
-43 4 110 -6 255 -19 255 -5 0 -9 -18 -9 -40z"/>
<path d="M3854 3153 c-5 -17 0 -46 11 -78 11 -27 23 -93 27 -145 5 -52 10
-110 11 -127 4 -42 -8 -42 -22 -2 -15 43 -13 49 4 19 32 -56 11 -2 -60 152
-66 145 -95 193 -95 158 0 -6 28 -85 61 -176 34 -91 59 -167 56 -170 -8 -8
-63 68 -91 128 -17 35 -43 70 -71 93 -25 20 -45 45 -45 56 0 21 -16 26 -23 7
-7 -21 11 -58 51 -104 21 -23 45 -62 53 -86 7 -23 28 -62 46 -85 18 -24 33
-46 33 -49 0 -4 -50 40 -111 97 -142 134 -176 162 -183 150 -3 -5 52 -71 123
-147 71 -77 128 -140 126 -142 -8 -8 -95 45 -138 84 -27 24 -68 49 -90 56 -23
6 -54 23 -69 37 -26 23 -28 24 -28 5 0 -26 35 -59 83 -79 21 -8 54 -33 75 -54
41 -43 109 -91 126 -91 6 1 -1 8 -16 16 -27 14 -35 24 -20 24 4 0 25 -12 47
-26 22 -14 31 -22 19 -19 -14 4 -21 1 -21 -10 0 -8 5 -15 10 -15 6 0 8 -2 5
-5 -3 -3 -16 -1 -29 4 -21 9 -22 10 -4 11 21 1 -309 130 -333 130 -37 0 8 -28
156 -95 154 -71 208 -92 152 -60 -14 8 -19 14 -10 14 8 0 26 -6 39 -13 l23
-13 -23 -6 c-43 -12 -88 -7 -151 15 -42 14 -83 21 -123 20 -33 -1 -70 3 -82
10 -13 6 -26 8 -30 4 -12 -11 36 -46 61 -45 19 1 19 2 -4 9 -21 7 -19 8 20 11
68 4 96 1 160 -21 33 -11 82 -20 110 -20 27 0 50 -3 50 -7 0 -17 -155 -5 -210
16 -30 11 -64 20 -75 20 -11 0 7 -8 40 -18 33 -10 77 -26 97 -35 21 -9 57 -15
80 -14 l43 1 -45 7 -45 7 40 1 c22 0 49 -3 60 -8 17 -6 14 -9 -20 -16 l-40 -8
35 -7 35 -6 -35 -2 -35 -3 35 -13 35 -13 -35 -2 -35 -2 40 -13 c22 -8 33 -14
25 -15 -8 0 -28 -7 -45 -15 -26 -13 -26 -14 -5 -9 14 3 34 8 45 11 13 3 16 2
10 -4 -19 -18 -92 -33 -159 -33 -42 0 -85 -7 -118 -20 -81 -31 -101 -23 -28
10 44 20 81 30 116 30 50 0 161 27 151 36 -3 3 -26 -2 -51 -10 -26 -9 -70 -16
-99 -16 -35 0 -70 -9 -107 -26 -30 -14 -65 -23 -77 -21 -15 3 -23 -1 -23 -9 0
-22 63 -27 106 -8 21 9 84 21 139 26 55 4 115 10 133 11 41 4 41 -8 1 -22 -43
-15 -49 -13 -19 4 56 32 2 11 -152 -60 -144 -66 -193 -95 -159 -95 6 0 86 27
177 61 91 33 168 59 170 56 8 -8 -69 -63 -128 -91 -35 -17 -70 -43 -93 -71
-20 -25 -45 -45 -56 -45 -21 0 -26 -16 -6 -23 20 -7 57 11 103 51 23 21 62 45
86 53 23 7 62 28 85 46 24 18 46 33 49 33 4 0 -40 -50 -97 -111 -136 -145
-161 -176 -150 -183 5 -3 71 52 147 123 77 71 140 128 142 126 8 -8 -45 -95
-84 -138 -24 -27 -49 -68 -56 -90 -6 -23 -23 -54 -37 -69 -23 -26 -24 -28 -5
-28 26 0 59 35 79 83 8 21 33 54 54 75 43 41 91 109 91 126 -1 6 -8 -1 -16
-16 -14 -27 -24 -35 -24 -20 0 4 12 25 26 47 14 22 22 31 19 19 -4 -14 -1 -21
10 -21 8 0 15 5 15 10 0 6 2 8 5 5 3 -3 1 -16 -4 -29 -9 -21 -10 -22 -11 -4
-1 21 -130 -309 -130 -333 0 -37 28 8 95 156 71 154 92 208 60 152 -17 -30
-20 -11 -3 25 17 37 23 31 26 -29 2 -36 -4 -74 -19 -117 -15 -43 -22 -84 -21
-124 1 -33 -3 -70 -10 -82 -15 -29 -3 -42 19 -20 10 10 20 43 24 86 4 39 17
92 29 118 12 26 23 71 25 98 3 47 2 48 -5 10 l-7 -40 -1 40 c0 22 3 49 7 59
14 35 31 -64 31 -177 0 -125 10 -227 21 -227 5 0 9 18 9 40 0 22 -4 40 -10 40
-15 0 -12 247 3 293 12 34 13 21 12 -120 l-2 -158 7 135 c4 74 12 149 18 165
5 17 11 23 12 15 0 -8 7 -28 15 -45 14 -29 14 -17 0 35 -5 16 -4 21 2 15 18
-19 33 -92 33 -159 0 -42 7 -85 20 -118 31 -81 23 -101 -10 -28 -20 44 -30 81
-30 116 0 50 -27 161 -36 151 -3 -3 2 -26 10 -51 9 -26 16 -70 16 -99 0 -35 9
-70 26 -107 14 -30 23 -65 21 -77 -3 -15 1 -23 9 -23 22 0 27 63 8 106 -9 21
-21 84 -26 139 -4 55 -10 115 -11 133 -4 41 8 41 22 1 15 -43 13 -49 -4 -19
-32 56 -11 2 60 -152 67 -148 95 -193 95 -156 0 7 -27 84 -60 172 -33 87 -60
163 -60 170 1 21 62 -59 91 -121 19 -39 45 -74 74 -98 25 -20 45 -45 45 -56 0
-21 16 -26 23 -6 7 20 -11 57 -51 103 -21 23 -45 62 -53 86 -7 23 -29 62 -47
86 -18 24 -32 45 -30 47 2 2 65 -55 142 -126 76 -71 142 -126 147 -123 12 7
-16 41 -150 183 -57 61 -100 111 -97 111 19 0 97 -48 139 -86 28 -25 66 -48
90 -55 23 -6 54 -22 70 -37 25 -24 27 -24 27 -6 0 26 -34 58 -81 78 -20 8 -60
38 -89 66 -29 28 -71 60 -92 71 -21 11 -36 24 -33 29 3 4 -1 11 -7 13 -9 4 -8
6 2 6 8 0 22 -4 30 -9 12 -8 12 -10 -5 -10 -21 -1 310 -130 333 -130 37 0 -8
28 -156 95 -154 71 -208 92 -152 60 30 -17 11 -20 -25 -3 -37 17 -31 23 29 26
36 2 74 -4 117 -19 43 -15 84 -22 124 -21 33 1 70 -3 82 -10 13 -6 26 -8 30
-4 12 11 -36 46 -61 45 -19 -1 -19 -2 4 -9 21 -7 19 -8 -20 -11 -68 -4 -96 -1
-160 21 -33 11 -82 20 -110 20 -27 0 -50 3 -50 8 0 4 26 6 57 5 l58 -2 -53 9
c-68 10 -74 17 -26 26 l39 8 -35 7 -35 6 35 2 c37 1 31 16 -10 24 -20 3 -19 5
10 7 l35 2 -40 13 c-22 8 -33 14 -25 15 8 0 29 7 45 15 26 13 26 14 5 9 -14
-3 -34 -8 -45 -11 -13 -3 -16 -2 -10 4 19 18 92 33 159 33 42 0 85 7 118 20
81 31 101 23 28 -10 -44 -20 -81 -30 -116 -30 -50 0 -161 -27 -151 -36 3 -3
26 2 51 10 26 9 70 16 99 16 35 0 70 9 107 26 30 14 65 23 77 21 33 -6 29 21
-4 29 -17 5 -46 0 -78 -11 -27 -11 -93 -23 -145 -27 -52 -5 -110 -10 -127 -11
-34 -4 -44 7 -17 17 25 9 41 7 24 -4 -37 -24 11 -5 162 64 145 67 193 96 158
96 -6 0 -85 -28 -176 -61 -91 -34 -167 -59 -170 -56 -8 8 68 63 128 91 35 17
70 43 93 71 20 25 45 45 56 45 21 0 26 16 7 23 -21 7 -58 -11 -104 -51 -23
-21 -62 -45 -86 -53 -23 -7 -62 -29 -86 -47 -24 -18 -45 -32 -47 -30 -2 2 55
65 126 142 71 76 126 142 123 147 -7 11 -38 -14 -183 -150 -61 -57 -111 -100
-111 -97 0 19 48 97 86 139 25 28 48 66 55 90 6 23 22 54 37 70 24 25 24 27 6
27 -26 0 -58 -34 -78 -81 -8 -20 -38 -60 -66 -89 -28 -29 -60 -71 -71 -92 -11
-21 -24 -36 -29 -33 -4 3 -11 -1 -13 -7 -4 -9 -6 -8 -6 2 0 8 4 22 9 30 8 12
10 12 10 -5 1 -21 130 310 130 333 0 37 -28 -8 -95 -156 -71 -154 -92 -208
-60 -152 17 30 20 11 3 -25 -17 -37 -23 -31 -26 29 -2 36 4 74 19 117 15 43
22 84 21 124 -1 33 3 70 10 82 6 13 8 26 4 30 -11 12 -46 -36 -45 -61 1 -19 2
-19 9 4 7 21 8 19 11 -20 4 -68 1 -96 -21 -160 -11 -33 -20 -82 -20 -110 0
-27 -3 -50 -7 -50 -5 0 -7 26 -6 57 1 32 -1 47 -3 33 -2 -14 -7 -41 -11 -60
l-6 -35 -13 40 -12 40 -3 -35 -2 -35 -7 35 -6 35 -11 -35 -11 -35 -2 35 -2 35
-13 -40 c-8 -22 -14 -33 -15 -25 0 8 -7 29 -15 45 -15 30 -14 19 1 -37 4 -15
3 -19 -3 -13 -18 19 -33 92 -33 159 0 42 -7 85 -20 118 -31 81 -23 101 10 28
20 -44 30 -81 30 -116 0 -50 27 -161 36 -151 3 3 -2 26 -10 51 -9 26 -16 70
-16 99 0 35 -9 70 -26 107 -14 30 -23 65 -21 77 6 33 -21 29 -29 -4z m-9 -271
c-2 -7 0 -10 5 -7 6 3 11 1 11 -4 1 -6 3 -23 4 -38 2 -16 6 -39 10 -53 5 -19
4 -21 -4 -10 -8 12 -11 12 -17 -3 -6 -16 -10 -15 -38 12 -17 16 -35 30 -41 30
-5 0 -11 4 -13 9 -6 19 28 6 58 -23 49 -47 45 -13 -15 149 -30 82 -55 151 -54
155 0 3 23 -41 50 -99 27 -57 47 -110 44 -118z m353 70 c-40 -108 -54 -137
-60 -122 -9 25 0 52 15 43 6 -4 7 -1 3 6 -7 11 83 225 91 217 2 -1 -21 -66
-49 -144z m164 95 c-6 -7 -20 -38 -32 -69 -11 -31 -38 -76 -59 -99 -21 -24
-50 -68 -65 -97 -15 -30 -30 -52 -32 -49 -3 3 6 28 20 56 34 66 26 66 -10 1
-15 -28 -29 -48 -31 -46 -10 10 42 92 92 146 30 33 61 76 70 97 9 20 23 45 32
55 18 20 31 25 15 5z m-611 -149 c34 -67 34 -67 13 -64 -9 2 -24 23 -35 50 -9
26 -36 67 -58 91 -23 25 -41 50 -41 57 0 24 92 -78 121 -134z m-62 -71 c57
-53 107 -94 111 -92 12 7 7 -20 -5 -32 -12 -11 -79 56 -235 232 -50 57 -45 52
129 -108z m764 121 c-137 -146 -221 -242 -218 -248 7 -12 -20 -7 -32 5 -9 10
22 43 130 143 142 131 178 161 120 100z m-938 -114 c32 -10 74 -34 102 -59 26
-23 72 -54 101 -69 30 -15 52 -30 49 -32 -3 -3 -24 4 -46 16 -23 11 -46 18
-52 14 -6 -3 -35 17 -64 46 -30 28 -72 58 -92 66 -43 18 -73 42 -73 58 0 6 5
3 11 -6 5 -9 34 -25 64 -34z m985 -10 c-25 -25 -71 -59 -102 -75 -67 -34 -67
-34 -64 -13 2 9 23 24 50 35 26 9 67 36 91 58 61 56 80 52 25 -5z m-670 -85
c0 -6 -11 3 -25 19 -14 17 -25 34 -25 38 1 12 50 -45 50 -57z m302 -6 c92 -51
146 -155 135 -261 -15 -145 -149 -254 -295 -239 -145 15 -254 149 -239 295 11
102 92 201 191 232 57 17 150 5 208 -27z m-574 -39 c101 -37 128 -50 112 -56
-23 -9 -52 0 -44 13 3 5 -1 6 -8 4 -8 -3 -61 17 -118 45 -122 59 -119 59 58
-6z m1030 46 c-68 -40 -250 -113 -288 -116 -29 -2 -39 0 -30 6 12 7 11 10 -3
16 -16 6 -15 10 12 38 16 17 30 35 30 41 0 5 4 11 9 13 19 6 6 -28 -23 -58
-46 -48 -13 -45 145 14 140 53 183 66 148 46z m-311 -45 c-15 -14 -33 -25 -38
-25 -6 0 3 11 18 25 15 13 33 24 38 24 6 0 -3 -11 -18 -24z m-547 -325 c-12
-8 -12 -10 3 -16 16 -6 15 -11 -15 -41 -18 -19 -32 -37 -30 -41 2 -3 -1 -8 -6
-10 -19 -6 -6 28 23 58 47 49 12 45 -149 -15 -82 -31 -150 -54 -152 -52 -8 8
246 116 260 111 8 -3 23 -1 33 5 10 6 25 10 33 11 13 0 13 -1 0 -10z m634 -6
c9 -3 13 -10 10 -15 -3 -5 1 -6 8 -4 8 3 61 -17 118 -45 122 -59 119 -59 -58
6 -93 34 -127 51 -115 56 10 3 19 7 20 7 1 1 8 -2 17 -5z m-73 -35 c22 -11 67
-44 99 -74 33 -30 76 -61 97 -70 42 -18 73 -43 73 -59 0 -6 -5 -3 -11 6 -5 9
-34 25 -64 34 -32 10 -74 34 -102 59 -26 23 -72 54 -101 69 -70 35 -61 45 10
12 55 -27 51 -22 -17 19 -49 30 -39 33 16 4z m-551 -25 c-17 -15 -33 -24 -36
-21 -6 6 45 47 58 47 5 0 -5 -12 -22 -26z m57 -9 c11 -12 -56 -79 -232 -235
-57 -50 -52 -45 108 129 53 57 94 107 92 111 -7 12 20 7 32 -5z m615 -200 c75
-83 69 -79 -101 78 -57 53 -108 94 -113 91 -11 -7 -6 16 7 33 10 13 40 -16
207 -202z m-746 169 c-2 -9 -23 -24 -49 -34 -26 -10 -68 -36 -93 -59 -26 -23
-52 -41 -57 -41 -23 0 80 93 133 120 65 34 69 35 66 14z m144 -43 c-11 -23
-18 -46 -14 -52 3 -6 -17 -35 -46 -64 -28 -30 -58 -72 -66 -92 -18 -43 -42
-73 -58 -73 -6 0 -3 5 6 11 9 5 25 35 35 66 11 35 33 73 59 102 23 25 53 70
68 99 15 30 30 52 32 49 3 -3 -4 -24 -16 -46z m407 -17 c-6 -6 -47 45 -47 58
0 5 12 -5 26 -22 15 -17 24 -33 21 -36z m8 -13 c5 0 11 -4 13 -9 6 -19 -28 -6
-58 23 -49 47 -45 13 15 -149 30 -82 54 -151 52 -152 -8 -8 -98 206 -91 217 4
8 3 10 -4 5 -7 -4 -13 -2 -13 3 -1 6 -3 23 -4 39 -2 15 -6 38 -10 52 -5 19 -4
21 4 10 8 -12 11 -12 17 3 6 16 10 15 38 -12 17 -16 35 -30 41 -30z m-292 -49
c-1 -50 -8 -96 -22 -132 -11 -30 -21 -75 -21 -100 0 -25 -4 -50 -8 -57 -17
-27 -3 145 17 204 12 34 21 85 21 113 0 27 3 50 8 50 4 0 6 -35 5 -78z m54 21
c-3 -10 -5 -2 -5 17 0 19 2 27 5 18 2 -10 2 -26 0 -35z m-123 -28 c-4 -8 -10
-12 -15 -9 -5 3 -6 -1 -4 -8 3 -8 -17 -61 -45 -118 -59 -122 -59 -119 6 58 37
101 50 128 56 112 4 -11 5 -27 2 -35z m407 -19 c9 -26 36 -67 58 -91 23 -25
41 -50 41 -57 0 -24 -92 78 -121 134 -34 67 -34 67 -13 64 9 -2 24 -23 35 -50z"/>
<path d="M3745 2750 c21 -22 41 -40 44 -40 3 0 -13 18 -34 40 -21 22 -41 40
-44 40 -3 0 13 -18 34 -40z"/>
<path d="M4245 2748 l-40 -43 43 40 c39 36 47 45 39 45 -2 0 -21 -19 -42 -42z"/>
<path d="M3874 2601 c-12 -5 -25 -14 -28 -20 -4 -6 9 -4 29 5 42 17 80 10 100
-19 12 -17 15 -18 15 -5 0 34 -71 58 -116 39z"/>
<path d="M4045 2598 c-25 -14 -35 -28 -34 -48 0 -8 4 -5 9 8 16 37 80 50 125
23 6 -3 2 2 -8 12 -22 19 -62 22 -92 5z"/>
<path d="M3852 2553 c-9 -8 -11 -12 -4 -8 6 3 12 0 13 -7 0 -7 4 -4 9 7 7 19
8 19 15 1 5 -11 3 -21 -6 -27 -9 -6 -2 -7 21 -4 27 4 30 3 15 -4 -11 -5 -14
-10 -7 -10 7 -1 22 4 32 9 15 8 17 16 11 32 -6 17 -17 23 -45 24 -20 0 -44 -6
-54 -13z m85 0 c-4 -3 -1 -13 6 -21 10 -13 9 -14 -3 -10 -19 6 -26 38 -9 38 7
0 9 -3 6 -7z"/>
<path d="M4045 2554 c-10 -8 -13 -14 -7 -14 7 0 11 -5 10 -11 -2 -6 4 -14 12
-16 12 -4 12 -3 1 5 -9 7 -10 12 -2 16 6 4 8 12 5 18 -4 7 -2 8 4 4 7 -4 12
-14 12 -22 0 -8 7 -14 15 -14 8 0 15 9 15 19 0 11 5 21 11 23 7 2 -4 4 -22 5
-19 0 -43 -5 -54 -13z"/>
<path d="M4126 2535 c-9 -14 -24 -25 -33 -25 -9 0 -14 -3 -10 -6 11 -11 46 7
52 27 4 10 11 16 17 13 7 -4 8 -2 4 4 -10 16 -11 16 -30 -13z"/>
<path d="M3976 2485 c-9 -26 -7 -32 5 -12 6 10 9 21 6 23 -2 3 -7 -2 -11 -11z"/>
<path d="M3940 2439 c0 -14 20 -20 36 -11 14 8 12 10 -10 14 -14 3 -26 2 -26
-3z"/>
<path d="M4030 2440 c-23 -5 -23 -7 -6 -13 11 -4 24 -3 30 3 14 14 5 18 -24
10z"/>
<path d="M3983 2373 c9 -2 25 -2 35 0 9 3 1 5 -18 5 -19 0 -27 -2 -17 -5z"/>
<path d="M3964 2356 c10 -8 16 -18 13 -23 -3 -4 8 -8 23 -8 15 0 26 4 23 8 -3
5 3 15 13 23 17 13 16 13 -8 3 -22 -9 -34 -9 -55 0 -25 10 -26 10 -9 -3z"/>
<path d="M4330 2640 c-8 -5 -10 -10 -5 -10 6 0 17 5 25 10 8 5 11 10 5 10 -5
0 -17 -5 -25 -10z"/>
<path d="M3745 2248 l-40 -43 43 40 c39 36 47 45 39 45 -2 0 -21 -19 -42 -42z"/>
<path d="M4245 2250 c21 -22 41 -40 44 -40 3 0 -13 18 -34 40 -21 22 -41 40
-44 40 -3 0 13 -18 34 -40z"/>
<path d="M3984 2985 c0 -71 1 -99 3 -62 2 37 2 96 0 130 -2 34 -3 4 -3 -68z"/>
<path d="M4102 3070 c0 -14 2 -19 5 -12 2 6 2 18 0 25 -3 6 -5 1 -5 -13z"/>
<path d="M4091 3027 c0 -10 -12 -44 -26 -77 -15 -36 -24 -76 -24 -102 2 -42 2
-42 9 12 4 30 18 77 30 103 12 26 19 56 17 65 -4 15 -5 15 -6 -1z"/>
<path d="M3911 2884 c0 -11 3 -14 6 -6 3 7 2 16 -1 19 -3 4 -6 -2 -5 -13z"/>
<path d="M4378 2583 c7 -3 16 -2 19 1 4 3 -2 6 -13 5 -11 0 -14 -3 -6 -6z"/>
<path d="M3343 2513 c-54 -5 -56 -23 -3 -23 22 0 40 4 40 10 0 5 56 11 133 13
l132 3 -130 0 c-71 0 -149 -1 -172 -3z"/>
<path d="M4493 2513 c70 -2 127 -8 127 -13 0 -5 -57 -11 -127 -13 -80 -3 -66
-3 35 -2 153 2 184 6 169 21 -4 4 -80 8 -169 9 -101 1 -115 1 -35 -2z"/>
<path d="M3453 2483 c37 -2 96 -2 130 0 34 2 4 3 -68 3 -71 0 -99 -1 -62 -3z"/>
<path d="M4360 2450 c30 -4 75 -17 100 -29 25 -11 54 -20 65 -20 l20 1 -20 5
c-11 3 -46 16 -77 29 -34 14 -75 23 -100 23 -42 -2 -42 -2 12 -9z"/>
<path d="M3608 2413 c7 -3 16 -2 19 1 4 3 -2 6 -13 5 -11 0 -14 -3 -6 -6z"/>
<path d="M4558 2393 c7 -3 16 -2 19 1 4 3 -2 6 -13 5 -11 0 -14 -3 -6 -6z"/>
<path d="M4081 2114 c0 -11 3 -14 6 -6 3 7 2 16 -1 19 -3 4 -6 -2 -5 -13z"/>
</g>
</svg>
